<svg class="icon" style="width: 1em;height: 1em;vertical-align: middle;fill: currentColor;overflow: hidden;" viewBox="0 0 1024 1024" version="1.1" xmlns="http://www.w3.org/2000/svg" p-id="5433"><path d="M512 38.641509a96.603774 96.603774 0 0 1 28.981132 188.763774V386.415094h-57.962264v-159.009811A96.642415 96.642415 0 0 1 512 38.641509z" fill="#333C50" p-id="5434"></path><path d="M164.226415 463.698113a154.566038 154.566038 0 0 1 154.566038-154.566038h386.415094a154.566038 154.566038 0 0 1 154.566038 154.566038v347.773585a154.566038 154.566038 0 0 1-154.566038 154.566038h-386.415094a154.566038 154.566038 0 0 1-154.566038-154.566038V463.698113z" fill="#64EDAC" p-id="5435"></path><path d="M589.476226 712.433509a28.981132 28.981132 0 0 1 38.525585 43.297812L608.603774 734.188679a2292.388226 2292.388226 0 0 1 19.359396 21.561963l-0.057962 0.057962-0.115925 0.096604-0.25117 0.193207-0.618264 0.579623a106.070943 106.070943 0 0 1-8.153358 6.066717c-5.255245 3.535698-12.751698 7.998792-22.412076 12.365283-19.494642 8.771623-47.683623 17.040906-84.354415 17.040905-36.690113 0-64.859774-8.269283-84.335094-17.040905a150.798491 150.798491 0 0 1-22.450717-12.365283 106.070943 106.070943 0 0 1-8.134038-6.086038l-0.637585-0.540981-0.231849-0.212528-0.115925-0.096604-0.057962-0.057962S395.998189 755.731321 415.396226 734.188679l-19.398037 21.542642a29.000453 29.000453 0 0 1 38.641509-43.181887v-0.038642l-0.115924-0.077283-0.057963-0.077283 0.367095 0.309132c0.463698 0.386415 1.410415 1.101283 2.801509 2.02868 2.801509 1.893434 7.399849 4.675623 13.795019 7.535094 12.732377 5.738264 32.845283 11.959547 60.570566 11.959547 27.705962 0 47.838189-6.221283 60.570566-11.940226 6.375849-2.898113 11.01283-5.660981 13.775698-7.535095 1.410415-0.966038 2.337811-1.680906 2.82083-2.048l0.347774-0.309132-0.038642 0.077283zM898.415094 483.018868a96.603774 96.603774 0 0 1 96.603774 96.603774v115.924528a96.603774 96.603774 0 0 1-96.603774 96.603773V483.018868zM125.584906 792.150943a96.603774 96.603774 0 0 1-96.603774-96.603773v-115.924528a96.603774 96.603774 0 0 1 96.603774-96.603774v309.132075z" fill="#333C50" p-id="5436"></path><path d="M338.113208 579.622642a57.962264 38.641509 90 1 0 77.283018 0 57.962264 38.641509 90 1 0-77.283018 0Z" fill="#333C50" p-id="5437"></path><path d="M608.603774 579.622642a57.962264 38.641509 90 1 0 77.283018 0 57.962264 38.641509 90 1 0-77.283018 0Z" fill="#333C50" p-id="5438"></path></svg>